<?xml version="1.0" standalone="no"?>
<!DOCTYPE svg PUBLIC "-//W3C//DTD SVG 1.1//EN" "http://www.w3.org/Graphics/SVG/1.1/DTD/svg11.dtd" >
<svg xmlns="http://www.w3.org/2000/svg" xmlns:xlink="http://www.w3.org/1999/xlink" version="1.1">
<metadata></metadata>
<defs>
<font id="aliens_among_usregular" horiz-adv-x="1300" >
<font-face units-per-em="2048" ascent="1638" descent="-410" />
<missing-glyph horiz-adv-x="700" />
<glyph unicode="&#xd;" horiz-adv-x="508" />
<glyph horiz-adv-x="0" />
<glyph horiz-adv-x="0" />
<glyph unicode=" "  horiz-adv-x="700" />
<glyph unicode="&#x09;" horiz-adv-x="700" />
<glyph unicode="&#xa0;" horiz-adv-x="700" />
<glyph unicode="!" horiz-adv-x="600" d="M50 -100v500h500v-500h-500zM50 500v1500h500v-1500h-500z" />
<glyph unicode="&#x22;" horiz-adv-x="1000" d="M50 1400v600h400v-600h-400zM550 1400v600h400v-600h-400z" />
<glyph unicode="#" horiz-adv-x="1500" d="M50 300v500h100v300h-100v500h100v400h500v-400h200v400h500v-400h100v-500h-100v-300h100v-500h-100v-400h-500v400h-200v-400h-500v400h-100zM650 800h200v300h-200v-300z" />
<glyph unicode="$" d="M50 -100v700h500v-200h200v100l-700 650v850h400v200h400v-200h400v-700h-500v200h-200v-100l700 -650v-850h-400v-200h-400v200h-400z" />
<glyph unicode="%" horiz-adv-x="1500" d="M50 -100l900 2100h500l-900 -2100h-500zM50 1400v500h500v-500h-500zM950 0v500h500v-500h-500z" />
<glyph unicode="&#x26;" horiz-adv-x="1500" d="M50 -100v850l200 200l-200 200v850h1200v-850l-200 -200l200 -200v-350h199l1 -500h-200v-200h-500v200h-700zM550 400h200v300h-200v-300zM550 1200h200v300h-200v-300z" />
<glyph unicode="'" horiz-adv-x="500" d="M50 1400v600h400v-600h-400z" />
<glyph unicode="(" horiz-adv-x="800" d="M50 -100v2100h700v-500h-200v-1100h200v-500h-700z" />
<glyph unicode=")" horiz-adv-x="800" d="M50 -100v500h200v1100h-200v500h700v-2100h-700z" />
<glyph unicode="*" horiz-adv-x="889" d="M50 1480l200 120l-200 120l103 172l191 -115v223h200v-223l192 115l103 -172l-200 -120l200 -120l-103 -172l-192 115v-223h-200v223l-191 -115z" />
<glyph unicode="+" horiz-adv-x="1200" d="M50 700v500h300v300h500v-300h300v-500h-300v-300h-500v300h-300z" />
<glyph unicode="," horiz-adv-x="750" d="M50 -400l150 700h500l-250 -700h-400z" />
<glyph unicode="-" horiz-adv-x="800" d="M50 700v500h700v-500h-700z" />
<glyph unicode="." horiz-adv-x="600" d="M50 -100v500h500v-500h-500z" />
<glyph unicode="/" horiz-adv-x="1500" d="M50 -100l900 2100h500l-900 -2100h-500z" />
<glyph unicode="0" d="M50 -100v2100h1200v-2100h-1200zM550 400h200v1100h-200v-1100z" />
<glyph unicode="1" horiz-adv-x="700" d="M50 1500l100 500h500v-2100h-500v1600h-100z" />
<glyph unicode="2" d="M50 -100v1300h700v300h-700v500h1200v-1300h-700v-300h700v-500h-1200z" />
<glyph unicode="3" d="M50 -100v500h700v300h-500v500h500v300h-700v500h1200v-850l-200 -200l200 -200v-850h-1200z" />
<glyph unicode="4" horiz-adv-x="1400" d="M50 500l150 1500h500l-95 -1000h145v1000h500v-1000h100v-500h-100v-600h-500v600h-700z" />
<glyph unicode="5" d="M50 -100v500h700v300h-700v1300h1200v-500h-700v-300h700v-1300h-1200z" />
<glyph unicode="6" d="M50 -100v2100h1100v-500h-600v-300h700v-1300h-1200zM550 400h200v300h-200v-300z" />
<glyph unicode="7" horiz-adv-x="1200" d="M50 1500v500h1100l-350 -2100h-550l250 1600h-450z" />
<glyph unicode="8" d="M50 -100v850l200 200l-200 200v850h1200v-850l-200 -200l200 -200v-850h-1200zM550 400h200v300h-200v-300zM550 1200h200v300h-200v-300z" />
<glyph unicode="9" d="M50 700v1300h1200v-2100h-1100v500h600v300h-700zM550 1200h200v300h-200v-300z" />
<glyph unicode=":" horiz-adv-x="600" d="M50 -100v500h500v-500h-500zM50 500v500h500v-500h-500z" />
<glyph unicode=";" horiz-adv-x="800" d="M50 -200l200 600h500l-300 -600h-400zM250 500v500h500v-500h-500z" />
<glyph unicode="&#x3c;" horiz-adv-x="1200" d="M50 500v400l1100 500v-500l-600 -200l600 -200v-500z" />
<glyph unicode="=" horiz-adv-x="1100" d="M50 200v400h1000v-400h-1000zM50 800v400h1000v-400h-1000z" />
<glyph unicode="&#x3e;" horiz-adv-x="1200" d="M50 0v500l600 200l-600 200v500l1100 -500v-400z" />
<glyph unicode="?" d="M50 1300v700h1200v-1300h-350v-200h-500v700h350v300h-200v-200h-500zM400 -100v500h500v-500h-500z" />
<glyph unicode="@" d="M50 -100v2100h1200v-1200h-600v500h100v200h-200v-1100h200v200h500v-700h-1200z" />
<glyph unicode="A" horiz-adv-x="1500" d="M50 -100l400 2100h600l400 -2100h-500l-31 200h-338l-31 -200h-500zM658 600h184l-92 600z" />
<glyph unicode="B" d="M50 -100v2100h1200v-850l-200 -200l200 -200v-850h-1200zM550 400h200v300h-200v-300zM550 1200h200v300h-200v-300z" />
<glyph unicode="C" d="M50 -100v2100h1200v-700h-500v200h-200v-1100h200v200h500v-700h-1200z" />
<glyph unicode="D" d="M50 -100v2100h950l250 -250v-1850h-1200zM550 400h200v1100h-200v-1100z" />
<glyph unicode="E" horiz-adv-x="1100" d="M50 -100v2100h1000v-500h-500v-300h400v-500h-400v-300h500v-500h-1000z" />
<glyph unicode="F" horiz-adv-x="1100" d="M50 -100v2100h1000v-500h-500v-300h400v-500h-400v-800h-500z" />
<glyph unicode="G" d="M50 -100v2100h1200v-700h-500v200h-200v-1100h200v200h-100v500h600v-1200h-1200z" />
<glyph unicode="H" d="M50 -100v2100h500v-800h200v800h500v-2100h-500v800h-200v-800h-500z" />
<glyph unicode="I" horiz-adv-x="600" d="M50 -100v2100h500v-2100h-500z" />
<glyph unicode="J" horiz-adv-x="900" d="M50 -100v500h300v1600h500v-2100h-800z" />
<glyph unicode="K" d="M50 -100v2100h500v-800l200 800h500l-249 -1050l249 -1050h-500l-200 800v-800h-500z" />
<glyph unicode="L" horiz-adv-x="1000" d="M50 -100v2100h500v-1600h400v-500h-900z" />
<glyph unicode="M" horiz-adv-x="1700" d="M50 -100v2100h600l200 -1100l200 1100h600v-2100h-500v967l-200 -967h-200l-200 964v-964h-500z" />
<glyph unicode="N" d="M50 -100v2100h400l300 -800v800h500v-2100h-400l-300 800v-800h-500z" />
<glyph unicode="O" d="M50 -100v2100h1200v-2100h-1200zM550 400h200v1100h-200v-1100z" />
<glyph unicode="P" d="M50 -100v2100h1200v-1300h-700v-800h-500zM550 1200h200v300h-200v-300z" />
<glyph unicode="Q" d="M50 -100v2100h1200v-2100h-150l75 -118l-423 -267l-245 385h-457zM550 400h200v1100h-200v-1100z" />
<glyph unicode="R" d="M50 -100v2100h1200v-1200h-200l200 -900h-500l-200 800v-800h-500zM550 1200h200v300h-200v-300z" />
<glyph unicode="S" d="M50 -100v700h500v-200h200v100l-700 650v850h1200v-700h-500v200h-200v-100l700 -650v-850h-1200z" />
<glyph unicode="T" horiz-adv-x="1200" d="M50 1500v500h1100v-500h-300v-1600h-500v1600h-300z" />
<glyph unicode="U" d="M50 -100v2100h500v-1600h200v1600h500v-2100h-1200z" />
<glyph unicode="V" horiz-adv-x="1500" d="M50 2000h500l200 -1300l200 1300h500l-400 -2100h-600z" />
<glyph unicode="W" horiz-adv-x="2200" d="M50 2000h500l200 -1300l200 1300h300l200 -1300l200 1300h500l-400 -2100h-500l-150 600l-150 -600h-500z" />
<glyph unicode="X" horiz-adv-x="1500" d="M50 -100l450 1050l-450 1050h500l200 -467l200 467h500l-450 -1050l450 -1050h-500l-200 467l-200 -467h-500z" />
<glyph unicode="Y" horiz-adv-x="1500" d="M50 2000h500l200 -500l200 500h500l-449 -1200v-900h-500v900z" />
<glyph unicode="Z" d="M50 -100v850l700 650v100h-200h-150h-350v500h1200v-850l-700 -650v-100h200h100h400v-500h-1200z" />
<glyph unicode="[" horiz-adv-x="800" d="M50 -100v2100h700v-500h-200v-1100h200v-500h-700z" />
<glyph unicode="\" horiz-adv-x="1500" d="M50 2000h500l900 -2100h-500z" />
<glyph unicode="]" horiz-adv-x="800" d="M50 -100v500h200v1100h-200v500h700v-2100h-700z" />
<glyph unicode="^" horiz-adv-x="1100" d="M50 1400l500 600l500 -600l-300 -200l-200 247l-200 -247z" />
<glyph unicode="_" d="M50 -100v500h1200v-500h-1200z" />
<glyph unicode="`" horiz-adv-x="700" d="M50 2000h400l200 -500h-400z" />
<glyph unicode="a" horiz-adv-x="1500" d="M50 -100l400 2100h600l400 -2100h-500l-31 200h-338l-31 -200h-500zM658 600h184l-92 600z" />
<glyph unicode="b" d="M50 -100v2100h1200v-850l-200 -200l200 -200v-850h-1200zM550 400h200v300h-200v-300zM550 1200h200v300h-200v-300z" />
<glyph unicode="c" d="M50 -100v2100h1200v-700h-500v200h-200v-1100h200v200h500v-700h-1200z" />
<glyph unicode="d" d="M50 -100v2100h950l250 -250v-1850h-1200zM550 400h200v1100h-200v-1100z" />
<glyph unicode="e" horiz-adv-x="1100" d="M50 -100v2100h1000v-500h-500v-300h400v-500h-400v-300h500v-500h-1000z" />
<glyph unicode="f" horiz-adv-x="1100" d="M50 -100v2100h1000v-500h-500v-300h400v-500h-400v-800h-500z" />
<glyph unicode="g" d="M50 -100v2100h1200v-700h-500v200h-200v-1100h200v200h-100v500h600v-1200h-1200z" />
<glyph unicode="h" d="M50 -100v2100h500v-800h200v800h500v-2100h-500v800h-200v-800h-500z" />
<glyph unicode="i" horiz-adv-x="600" d="M50 -100v2100h500v-2100h-500z" />
<glyph unicode="j" horiz-adv-x="900" d="M50 -100v500h300v1600h500v-2100h-800z" />
<glyph unicode="k" d="M50 -100v2100h500v-800l200 800h500l-249 -1050l249 -1050h-500l-200 800v-800h-500z" />
<glyph unicode="l" horiz-adv-x="1000" d="M50 -100v2100h500v-1600h400v-500h-900z" />
<glyph unicode="m" horiz-adv-x="1700" d="M50 -100v2100h600l200 -1100l200 1100h600v-2100h-500v967l-200 -967h-200l-200 964v-964h-500z" />
<glyph unicode="n" d="M50 -100v2100h400l300 -800v800h500v-2100h-400l-300 800v-800h-500z" />
<glyph unicode="o" d="M50 -100v2100h1200v-2100h-1200zM550 400h200v1100h-200v-1100z" />
<glyph unicode="p" d="M50 -100v2100h1200v-1300h-700v-800h-500zM550 1200h200v300h-200v-300z" />
<glyph unicode="q" d="M50 -100v2100h1200v-2100h-150l75 -118l-423 -267l-245 385h-457zM550 400h200v1100h-200v-1100z" />
<glyph unicode="r" d="M50 -100v2100h1200v-1200h-200l200 -900h-500l-200 800v-800h-500zM550 1200h200v300h-200v-300z" />
<glyph unicode="s" d="M50 -100v700h500v-200h200v100l-700 650v850h1200v-700h-500v200h-200v-100l700 -650v-850h-1200z" />
<glyph unicode="t" horiz-adv-x="1200" d="M50 1500v500h1100v-500h-300v-1600h-500v1600h-300z" />
<glyph unicode="u" d="M50 -100v2100h500v-1600h200v1600h500v-2100h-1200z" />
<glyph unicode="v" horiz-adv-x="1500" d="M50 2000h500l200 -1300l200 1300h500l-400 -2100h-600z" />
<glyph unicode="w" horiz-adv-x="2200" d="M50 2000h500l200 -1300l200 1300h300l200 -1300l200 1300h500l-400 -2100h-500l-150 600l-150 -600h-500z" />
<glyph unicode="x" horiz-adv-x="1500" d="M50 -100l450 1050l-450 1050h500l200 -467l200 467h500l-450 -1050l450 -1050h-500l-200 467l-200 -467h-500z" />
<glyph unicode="y" horiz-adv-x="1500" d="M50 2000h500l200 -500l200 500h500l-449 -1200v-900h-500v900z" />
<glyph unicode="z" d="M50 -100v850l700 650v100h-200h-150h-350v500h1200v-850l-700 -650v-100h200h100h400v-500h-1200z" />
<glyph unicode="{" horiz-adv-x="900" d="M50 700v500h100v800h700v-500h-200v-1100h200v-500h-700v800h-100z" />
<glyph unicode="|" horiz-adv-x="500" d="M50 -100v2100h400v-2100h-400z" />
<glyph unicode="}" horiz-adv-x="900" d="M50 -100v500h200v1100h-200v500h700v-800h100v-500h-100v-800h-700z" />
<glyph unicode="~" horiz-adv-x="800" d="M50 700v500l100 -50h175l75 50l75 50h175l100 -50v-500l-100 50h-175l-75 -50l-75 -50h-175z" />
<glyph unicode="&#xa3;" horiz-adv-x="1400" d="M50 700v500h100v800h1200v-700h-500v200h-200v-300h400v-500h-400v-300h700v-500h-1200v800h-100z" />
<glyph unicode="&#xa5;" horiz-adv-x="1500" d="M50 2000h500l200 -500l200 500h500l-449 -1200h249v-200h-250v-100h250v-200h-249v-400h-500v400h-251v200h250v100h-250v200h251z" />
<glyph unicode="&#xad;" horiz-adv-x="800" d="M50 700v500h700v-500h-700z" />
<glyph unicode="&#xb4;" horiz-adv-x="700" d="M50 1500l200 500h400l-200 -500h-400z" />
<glyph unicode="&#xf7;" horiz-adv-x="1100" d="M50 600v500h1000v-500h-1000zM300 0v500h500v-500h-500zM300 1200v500h500v-500h-500z" />
<glyph unicode="&#x2c6;" horiz-adv-x="1100" d="M50 1400l500 600l500 -600l-300 -200l-200 247l-200 -247z" />
<glyph unicode="&#x2dc;" horiz-adv-x="800" d="M50 1450v500l100 -50h175l75 50l75 50h175l100 -50v-500l-100 50h-175l-75 -50l-75 -50h-175z" />
<glyph unicode="&#x2000;" horiz-adv-x="1100" />
<glyph unicode="&#x2001;" horiz-adv-x="2200" />
<glyph unicode="&#x2002;" horiz-adv-x="1100" />
<glyph unicode="&#x2003;" horiz-adv-x="2200" />
<glyph unicode="&#x2004;" horiz-adv-x="733" />
<glyph unicode="&#x2005;" horiz-adv-x="550" />
<glyph unicode="&#x2006;" horiz-adv-x="366" />
<glyph unicode="&#x2007;" horiz-adv-x="366" />
<glyph unicode="&#x2008;" horiz-adv-x="275" />
<glyph unicode="&#x2009;" horiz-adv-x="440" />
<glyph unicode="&#x200a;" horiz-adv-x="122" />
<glyph unicode="&#x2010;" horiz-adv-x="800" d="M50 700v500h700v-500h-700z" />
<glyph unicode="&#x2011;" horiz-adv-x="800" d="M50 700v500h700v-500h-700z" />
<glyph unicode="&#x2012;" horiz-adv-x="800" d="M50 700v500h700v-500h-700z" />
<glyph unicode="&#x2013;" horiz-adv-x="1100" d="M50 700v400h1000v-400h-1000z" />
<glyph unicode="&#x2014;" horiz-adv-x="1999" d="M50 700v400h1899v-400h-1899z" />
<glyph unicode="&#x2018;" horiz-adv-x="500" d="M50 1400v600h400v-600h-400z" />
<glyph unicode="&#x2019;" horiz-adv-x="500" d="M50 1400v600h400v-600h-400z" />
<glyph unicode="&#x201a;" horiz-adv-x="500" d="M50 200h400v-600h-400v600z" />
<glyph unicode="&#x201c;" horiz-adv-x="1000" d="M50 1400v600h400v-600h-400zM550 1400v600h400v-600h-400z" />
<glyph unicode="&#x201d;" horiz-adv-x="1000" d="M50 1400v600h400v-600h-400zM550 1400v600h400v-600h-400z" />
<glyph unicode="&#x201e;" horiz-adv-x="1000" d="M50 200h400v-600h-400v600zM550 200h400v-600h-400v600z" />
<glyph unicode="&#x2022;" horiz-adv-x="600" d="M50 500v500h500v-500h-500z" />
<glyph unicode="&#x2026;" horiz-adv-x="1800" d="M50 -100v500h500v-500h-500zM650 -100v500h500v-500h-500zM1250 -100v500h500v-500h-500z" />
<glyph unicode="&#x202f;" horiz-adv-x="440" />
<glyph unicode="&#x2039;" horiz-adv-x="1200" d="M50 500v400l1100 500v-400l-700 -300l700 -300v-400z" />
<glyph unicode="&#x203a;" horiz-adv-x="1200" d="M50 0v400l700 300l-700 300v400l1100 -500v-400z" />
<glyph unicode="&#x205f;" horiz-adv-x="550" />
<glyph unicode="&#x20ac;" horiz-adv-x="1400" d="M50 700v200h100v100h-100v200h100v800h1200v-700h-500v200h-200v-300h400v-200h-400v-100h400v-200h-400v-300h200v200h500v-700h-1200v800h-100z" />
<glyph unicode="&#x2122;" horiz-adv-x="751" d="M50 1300v100h250v-100h-75v-350h-100v350h-75zM350 950v449h132l44 -235l43 235h132v-449h-110v207l-44 -207h-43l-44 206v-206h-110z" />
<glyph unicode="&#x25fc;" horiz-adv-x="2000" d="M0 0v2000h2000v-2000h-2000z" />
</font>
</defs>
</svg>
