<?xml version="1.0" standalone="no"?>
<!DOCTYPE svg PUBLIC "-//W3C//DTD SVG 1.1//EN" "http://www.w3.org/Graphics/SVG/1.1/DTD/svg11.dtd" >
<svg xmlns="http://www.w3.org/2000/svg" xmlns:xlink="http://www.w3.org/1999/xlink" version="1.1">
<metadata></metadata>
<defs>
<font id="kids_magazineregular" horiz-adv-x="1010" >
<font-face units-per-em="2048" ascent="1638" descent="-410" />
<missing-glyph horiz-adv-x="1151" />
<glyph horiz-adv-x="0" />
<glyph unicode="&#xd;" horiz-adv-x="508" />
<glyph unicode=" "  horiz-adv-x="1151" />
<glyph unicode="&#x09;" horiz-adv-x="1151" />
<glyph unicode="&#xa0;" horiz-adv-x="1151" />
<glyph unicode="!" horiz-adv-x="903" d="M50 2151q404 63 733 73q-49 -1147 -81 -1602q-275 -35 -545 -54q0 -18 -52 -7q-36 502 -55 1590zM58 180q21 192 205.5 283.5t332.5 33.5q185 -99 148 -290q-41 -147 -158 -221q-132 -82 -331 -52t-197 246z" />
<glyph unicode="&#x22;" horiz-adv-x="1579" d="M50 1564q157 360 413 830l375 -166q-52 -182 -402 -824q-193 55 -386 160zM671 1620q157 359 413 830l375 -166q-52 -182 -402 -824q-193 55 -386 160z" />
<glyph unicode="#" horiz-adv-x="2149" d="M50 419v525q28 11 306 39q10 48 21 97q-92 -8 -190 -16v525q28 12 309 41q50 227 106 484q193 88 554 71q-7 -63 -101 -501l188 17q49 226 105 481q193 87 554 70q-7 -64 -101 -502q96 8 199 17q29 -223 7 -535q-23 -7 -327 -37q-10 -44 -21 -91q99 9 204 17 q29 -222 7 -534q-23 -8 -334 -38q-56 -250 -120 -535q-21 -5 -541 -53q0 31 108 538q-92 -9 -193 -17q-56 -250 -120 -535q-21 -5 -541 -53q0 31 109 541q-91 -8 -188 -16zM914 1039q89 7 189 16q9 43 19 89q-90 -8 -189 -16q-9 -44 -19 -89z" />
<glyph unicode="$" horiz-adv-x="2001" d="M117 88l129 551q979 -179 944 67q-25 107 -177 92q-136 -11 -274 -10q-204 2 -338 94q-186 127 -225 263q-126 396 87 726q173 249 464 329q-1 107 -1 272q159 30 491 49q11 -22 6 -294q245 -30 540 -130l-129 -556q-894 190 -850 -77q26 -109 178 -92q144 14 272 10 q205 -2 339 -94q186 -128 225 -263q126 -396 -87 -726q-178 -255 -487 -333q0 -109 -5 -279q-18 -3 -482 -45q-10 10 -11 301q-274 31 -609 145z" />
<glyph unicode="%" horiz-adv-x="1916" d="M190 -122q16 67 971 2336q209 91 559 72q-49 -154 -988 -2355q-22 -5 -542 -53zM215 1507q-165 228 28 464q60 73 170 123q100 40 194 40q90 0 168 -40q131 -92 131 -249q10 -371 -380 -443q-67 -8 -134 4q-112 24 -177 101zM480 1747q-2 -29 35 -42q26 -10 52 15 q23 22 21 57q-1 36 -31 43q-14 3 -34 -8q-40 -23 -43 -65zM1095 151q-165 228 28 464q60 73 170 123q100 40 194 41q90 -1 168 -41q131 -91 131 -248q10 -372 -380 -444q-67 -8 -134 4q-112 24 -177 101zM1360 391q-2 -29 35 -42q26 -9 52 15q23 22 21 57q-1 36 -31 43 q-14 3 -34 -8q-40 -23 -43 -65z" />
<glyph unicode="&#x26;" horiz-adv-x="2468" d="M93 395q-43 343 166 561q126 141 246 227q-223 249 -158 541q53 238 394 423q277 113 480 78q233 -18 392 -188q136 -166 142 -299q31 -374 -414 -572q138 -127 342 -234q247 197 315 303q350 -229 339 -306l-308 -280q207 -151 307 -348q-142 -171 -329 -318 q-157 192 -338 329q-77 -63 -288 -211q-345 -227 -673 -201q-494 12 -615 495zM702 585q4 -138 165 -139q166 -8 350 159q-161 140 -298 231q-257 -109 -217 -251zM915 1579q5 -83 117 -127q261 130 67 247q-182 27 -184 -120z" />
<glyph unicode="'" horiz-adv-x="958" d="M50 1592q157 360 413 830l375 -166q-52 -182 -402 -824q-193 55 -386 160z" />
<glyph unicode="(" horiz-adv-x="1448" d="M53 1034q-2 465 155 853q160 381 368 590q338 302 741 319v-496q-666 -351 -636 -1238q-19 -911 644 -1065l3 -501q-374 -56 -635 77q-202 101 -358 320q-119 173 -179 371q-106 384 -103 770z" />
<glyph unicode=")" horiz-adv-x="1448" d="M50 2680q374 57 635 -77q202 -100 357 -318q119 -174 180 -372q106 -384 102 -770q2 -465 -154 -852q-161 -382 -369 -591q-338 -301 -740 -320v496q666 351 635 1238q20 911 -644 1066z" />
<glyph unicode="*" horiz-adv-x="1686" d="M50 1430q187 151 348 280q-161 99 -348 218q129 229 261 403q149 -90 263 -161q0 137 2 334l449 40q5 -188 7 -331q113 90 262 207l272 -335q-201 -166 -370 -303q169 -107 370 -237l-271 -382q-147 86 -257 154q0 -136 -1 -313q-207 -35 -461 -37q-2 180 -2 315 q-114 -91 -261 -209q-134 149 -263 357z" />
<glyph unicode="+" horiz-adv-x="1565" d="M50 707v542q29 16 412 53q1 188 3 412l542 49q13 -28 16 -409q183 15 400 34q22 -231 5 -553q-23 -9 -404 -44q-1 -183 -2 -399q-233 -43 -553 -55q-7 22 -9 404q-187 -16 -410 -34z" />
<glyph unicode="," horiz-adv-x="958" d="M50 -372q157 360 413 830l375 -166q-52 -182 -402 -824q-193 55 -386 160z" />
<glyph unicode="-" horiz-adv-x="1565" d="M50 707v542q55 29 1373 139q22 -231 5 -553q-43 -18 -1378 -128z" />
<glyph unicode="." horiz-adv-x="895" d="M52 160q21 193 205.5 284.5t331.5 33.5q186 -100 149 -290q-41 -148 -158 -221q-132 -82 -331 -52t-197 245z" />
<glyph unicode="/" horiz-adv-x="1796" d="M50 -125q16 67 971 2336q460 85 655 71q-49 -153 -988 -2355q-22 -5 -638 -52z" />
<glyph unicode="0" horiz-adv-x="2355" d="M55 986q109 1184 1230 1255q460 39 757 -315q140 -214 166 -478q27 -289 -69 -600q-122 -340 -326 -538q-644 -605 -1368 -208q-239 168 -342 487q-53 198 -48 397zM749 876q119 -238 348 -211q273 48 396 330q58 149 27 275q-77 240 -336 222q-221 -7 -358 -180 q-151 -219 -77 -436z" />
<glyph unicode="1" horiz-adv-x="1451" d="M50 1538l554 643q57 33 709 61q18 -50 4 -2192q-387 -74 -730 -62q-20 652 -8 1284l-158 -139q-293 287 -371 405z" />
<glyph unicode="2" horiz-adv-x="1912" d="M50 1866q531 472 1196 290q496 -204 503 -699l2 1q-3 -514 -609 -842q610 68 632 53q18 -445 -5 -603q-799 -86 -1661 -148q-29 226 -10 603q605 278 836 588q84 114 90 216q14 118 -40 172q-206 234 -816 -145q-49 43 -118 514z" />
<glyph unicode="3" horiz-adv-x="1944" d="M50 2018q157 91 447 165q835 179 1172 -351q155 -341 -238 -671q386 -173 385 -441.5t-206 -460.5q-311 -303 -1085 -338q-174 -12 -450 36l94 533q896 -27 864 230q-27 104 -157 117q-142 18 -426 -11v449q500 38 474 232q-11 94 -119 114q-164 53 -632 -96z" />
<glyph unicode="4" horiz-adv-x="1807" d="M73 1071q479 600 893 1205q268 -125 525 -330q-271 -374 -579 -800q690 69 759 64q16 -280 4 -569l-387 -37q7 -444 -4 -568q-312 -56 -611 -59q-2 227 -3 559q-406 -36 -595 -53q-25 257 -2 588z" />
<glyph unicode="5" horiz-adv-x="1911" d="M50 114q146 437 196 486q882 -236 878 204q-7 191 -211 237q-180 35 -260 -109l-518 -49q-26 495 -3 1196q89 37 1558 159q15 -239 5 -531q-79 -11 -1037 -94l-2 -144q115 91 371 93q522 13 680 -410q205 -696 -324 -1084q-313 -176 -707 -147q-417 29 -626 193z" />
<glyph unicode="6" horiz-adv-x="2010" d="M139 1431q130 425 418 618q521 330 1158 232q4 -374 -13 -579q-501 64 -723 -74q-256 -201 -234 -317q215 163 592 129q403 -42 498 -443q92 -573 -253 -845q-539 -393 -1139 -71q-534 406 -304 1350zM795 658q11 -179 168 -195q237 -29 320 128q113 323 -144 354 q-315 12 -344 -287z" />
<glyph unicode="7" horiz-adv-x="1765" d="M74 2098q1034 140 1556 144q15 -210 2 -532q-87 -201 -289 -491q-455 -691 -456 -1213q-321 -52 -621 -50q33 721 377 1231q181 264 222 424l-788 -70q-27 260 -3 557z" />
<glyph unicode="8" horiz-adv-x="2020" d="M108 1529q-4 232 284 482q356 260 804 242q543 -75 585 -529q19 -296 -411 -562q424 -74 502 -441q28 -303 -327 -576q-442 -265 -898 -193q-300 34 -456 219q-332 412 183 878q-263 174 -266 480zM735 673q-45 -193 65 -240q237 -77 405 99q111 227 -103 294 q-226 39 -367 -153zM751 1545q-17 -152 75 -185q195 -51 315 93q69 186 -109 229q-185 22 -281 -137z" />
<glyph unicode="9" horiz-adv-x="1984" d="M70 1418q95 589 581 768q601 174 989 -313q378 -624 -56 -1316q-298 -435 -1222 -734q-106 190 -187 557q524 138 745 344q-276 -55 -520 41q-368 230 -330 653zM706 1640q-178 -246 22 -392q286 -111 407 172q46 179 -94 243q-209 103 -335 -23z" />
<glyph unicode=":" horiz-adv-x="895" d="M52 160q21 193 205.5 284.5t331.5 33.5q186 -100 149 -290q-41 -148 -158 -221q-132 -82 -331 -52t-197 245zM52 997q21 193 205.5 284.5t331.5 33.5q186 -100 149 -290q-41 -148 -158 -221q-132 -82 -331 -52t-197 245z" />
<glyph unicode=";" horiz-adv-x="1057" d="M50 -376q157 359 413 829l375 -165q-52 -183 -402 -824q-193 54 -386 160zM214 1005q21 193 205.5 284t331.5 33q186 -99 149 -290q-41 -147 -158 -221q-132 -82 -331 -51.5t-197 245.5z" />
<glyph unicode="&#x3c;" horiz-adv-x="1812" d="M84 1293q981 459 1436 647q118 -242 151 -668q-252 -94 -616 -251q351 -57 637 -112l-160 -671q-916 185 -1447 319q-35 457 -1 736z" />
<glyph unicode="=" horiz-adv-x="1565" d="M50 284v542q55 29 1373 139q22 -231 5 -553q-43 -18 -1378 -128zM50 1130v542q55 29 1373 139q22 -231 5 -553q-43 -18 -1378 -128z" />
<glyph unicode="&#x3e;" horiz-adv-x="1812" d="M50 1152l160 670q916 -184 1447 -318q35 -457 1 -736q-981 -460 -1436 -648q-118 243 -151 669q252 94 616 250q-351 58 -637 113z" />
<glyph unicode="?" horiz-adv-x="2126" d="M50 1917q613 480 1362 308q594 -207 565 -745q-48 -457 -755 -702q-8 -55 -10 -230q-333 -34 -625 -49q-7 143 -4 659q288 29 471 116q367 156 190 310q-323 220 -1061 -172q-55 41 -133 505zM563 143q21 193 205.5 284t332.5 33q185 -99 148 -289q-41 -148 -158 -221 q-132 -82 -331 -52t-197 245z" />
<glyph unicode="@" horiz-adv-x="2389" d="M55 984q109 1184 1230 1255q460 40 757 -315q140 -213 166 -478q61 -593 -312 -823q-301 -176 -673 55q-143 -14 -256 4q-252 50 -258 337q4 329 304 426q112 37 177 11v38q11 2 303 27q8 -12 8 -483q100 -58 143 34q74 95 32 271q-104 336 -455 311q-299 -9 -485 -249 q-205 -306 -104 -609q161 -332 690 -286q86 -184 45 -453q-624 -190 -922 44q-239 167 -342 487q-53 197 -48 396zM985 1103q-14 -110 46 -145q48 -23 162 23q-2 78 -3 196q-186 22 -205 -74z" />
<glyph unicode="A" horiz-adv-x="2238" d="M50 -44q436 1636 613 2171q319 73 587 73q77 0 149 -6q371 -955 719 -2071q-163 -92 -704 -159q-36 125 -70 240q-223 -19 -556 -48q-27 -122 -53 -245q-143 -9 -261 -9q-293 0 -424 54zM924 732l255 23q-83 267 -139 428q-61 -227 -116 -451z" />
<glyph unicode="B" horiz-adv-x="2026" d="M77 2016q246 121 704 176q112 12 212 12q564 0 760 -368q40 -97 40 -193q0 -242 -256 -476q368 -170 368 -437q0 -269 -151 -407q-78 -82 -172 -135q-406 -234 -944 -257q-156 -15 -559 -17q-15 521 -15 1067q0 507 13 1035zM633 794q-1 -33 -1 -65q0 -127 10 -236 q37 -1 71 -1q449 0 449 226v10q-24 104 -143 119q-31 4 -66 4q-129 0 -320 -57zM634 1602v-37q0 -128 12 -251q418 0 418 181q0 10 -1 21q-10 94 -108 115q-39 5 -81 5q-109 0 -240 -34z" />
<glyph unicode="C" horiz-adv-x="1980" d="M50 995q12 200 83 409q160 444 583 688q253 133 515 133q231 0 468 -103q93 -54 131 -81q-205 -430 -379 -625q-162 89 -326 91q-227 -15 -368 -276q-40 -96 -40 -186q0 -126 78 -239q99 -121 264 -121q38 0 79 6q179 42 365 172q136 -126 357 -512q-50 -57 -161 -154 q-293 -202 -634 -218h-2q-1010 0 -1013 1016z" />
<glyph unicode="D" horiz-adv-x="1998" d="M96 2038q173 104 687 162q78 9 153 8q455 0 761 -330q161 -175 181 -582q-7 -626 -292 -945t-813 -400q-153 -23 -304 -23q-183 0 -361 34q-32 567 -32 1147q0 461 20 929zM689 1508q-3 -196 -3 -389q0 -247 5 -488q389 9 520 265q38 123 38 231q0 159 -81 289 q-88 107 -300 107q-81 0 -179 -15z" />
<glyph unicode="E" horiz-adv-x="1749" d="M78 2096q872 122 1523 146q12 -150 12 -293q0 -155 -14 -305l-883 -83l4 -209l846 73l1 -573q-51 -11 -839 -78l1 -197q787 87 869 87h6q13 -179 13 -326q0 -142 -12 -256q-539 -83 -1523 -131q-17 519 -17 1094q0 504 13 1051z" />
<glyph unicode="F" horiz-adv-x="1740" d="M73 -61q-10 880 -10 1401q0 703 18 754q779 105 1519 142q10 -115 10 -256q0 -148 -11 -323q-53 -15 -875 -89l-1 -247q758 72 834 72h5v-591l-847 -79q3 -186 3 -325q0 -367 -21 -412q-478 -48 -594 -48q-21 0 -30 1z" />
<glyph unicode="G" horiz-adv-x="2268" d="M91 1132q46 310 195 528q179 264 457 429q307 160 593 160q366 0 700 -261l-367 -583q-153 64 -327 93q-37 5 -72 5q-222 0 -386 -208q-94 -128 -98 -262q-2 -25 -2 -49q0 -238 236 -350q64 -9 119 -9q247 0 297 185q-338 -31 -401 -31q-10 0 -13 1q-6 133 -6 249 q0 140 9 254q956 101 1092 101q16 0 21 -1q7 -191 7 -353q0 -81 -2 -155v-18q0 -112 -34 -215q-264 -695 -1085 -695q-116 0 -243 14q-450 88 -656 587q-48 164 -48 360q0 107 14 224z" />
<glyph unicode="H" horiz-adv-x="1937" d="M65 2092q343 64 651 64h36q11 -459 13 -928q156 16 335 33q0 422 5 924q338 64 643 64h44q14 -574 14 -1165q0 -496 -10 -1003q-300 -49 -676 -64q-10 261 -15 592q-170 -17 -341 -32q-2 -293 -8 -589q-300 -49 -676 -65q-20 517 -20 1309q0 396 5 860z" />
<glyph unicode="I" horiz-adv-x="897" d="M65 2138q338 64 643 64h44q14 -574 14 -1164q0 -496 -10 -1003q-300 -49 -676 -65q-20 517 -20 1308q0 396 5 860z" />
<glyph unicode="J" horiz-adv-x="2088" d="M50 492l514 347q158 -227 269 -227q9 0 18 2q180 0 294 112q168 112 168 901q0 249 -17 567q347 61 534 61q64 0 109 -7q26 -392 26 -874v-101q-23 -823 -530 -1152q-252 -165 -557 -169q-251 2 -431 75q-168 88 -243 196q-116 132 -154 269z" />
<glyph unicode="K" horiz-adv-x="2076" d="M71 -80q-10 505 -10 1001q0 590 14 1167q309 60 654 60h33q4 -381 4 -717q267 327 642 783q239 -131 548 -430q-42 -70 -529 -662q164 -183 524 -615q-142 -203 -489 -551q-28 11 -504 600q-96 -115 -201 -241q-1 -66 -1 -129q0 -110 4 -208q-335 -52 -689 -58z" />
<glyph unicode="L" horiz-adv-x="1697" d="M74 -69q-10 409 -10 860q0 620 19 1318q272 58 513 58q63 0 124 -4l3 -1558q525 56 846 72q3 -119 3 -232q0 -197 -9 -375q-530 -78 -1489 -139z" />
<glyph unicode="M" horiz-adv-x="2541" d="M73 2010q427 142 757 185q72 -148 214.5 -512.5t206.5 -468.5q116 169 400 916q102 8 211 8q245 0 529 -39q16 -481 16 -1058q0 -500 -12 -1073q-305 -48 -663 -63q-9 36 -13 762q-447 -861 -480 -865l-482 935q-2 -344 -6 -777q-323 -50 -663 -63q-24 737 -24 1376 q0 386 9 737z" />
<glyph unicode="N" horiz-adv-x="2152" d="M69 -67q-9 454 -9 968q0 541 10 1149l612 150q284 -373 638 -925q-13 227 -13 527q0 165 4 351q222 20 389 20q183 0 300 -24q16 -594 16 -1118.5t-16 -979.5q-319 -127 -513 -127h-3q-286 432 -744 1025l1 -1024q-234 -11 -391 -11q-207 0 -281 19z" />
<glyph unicode="O" horiz-adv-x="2355" d="M55 986q109 1184 1230 1255q46 4 90 4q400 0 667 -319q140 -214 166 -478q6 -63 6 -128q0 -229 -75 -472q-122 -340 -326 -538q-389 -365 -807 -365q-274 0 -561 157q-239 168 -342 487q-48 181 -48 363v34zM749 876q107 -214 302 -213q22 0 46 2q273 48 396 330 q38 97 38 184q0 47 -11 91q-72 223 -301 223q-17 0 -35 -1q-221 -7 -358 -180q-101 -147 -101 -293q0 -72 24 -143z" />
<glyph unicode="P" horiz-adv-x="1971" d="M78 2070q52 36 555 92q180 22 338.5 22t297.5 -22q567 -114 582 -763q-9 -741 -695 -963q-149 -47 -397 -54q-1 -188 -3 -396q-276 -55 -672 -64q-19 643 -19 1227q0 481 13 921zM755 1548q4 -279 7 -592q423 40 466 256q5 45 5 85q0 177 -109 240q-59 31 -167 31 q-86 0 -202 -20z" />
<glyph unicode="Q" horiz-adv-x="2355" d="M55 985q109 1184 1230 1255q46 4 90 4q399 0 667 -319q140 -214 166 -478q6 -63 6 -128q0 -229 -75 -472q-88 -245 -219 -417q81 -124 175 -268q-186 -160 -466 -340q-16 11 -160 227q-223 -119 -455 -119q-278 0 -569 171q-239 168 -342 487q-48 181 -48 363v34z M749 875q107 -214 303 -214h16q-54 84 -114 176l460 328q16 -9 96 -122q21 70 21 135q0 47 -11 91q-72 223 -301 223q-17 0 -35 -1q-221 -7 -358 -180q-101 -147 -101 -293q0 -72 24 -143z" />
<glyph unicode="R" horiz-adv-x="1988" d="M78 2070q52 35 555 92q177 21 335 21q161 0 301 -22q567 -114 582 -763q-6 -497 -317 -760q139 -183 334 -443q-181 -174 -457 -375q-30 20 -447 575q-92 -11 -205 -14q-1 -188 -3 -395q-276 -56 -672 -65q-19 643 -19 1227q0 481 13 922zM755 1547q4 -279 7 -592 q423 40 466 256q5 45 5 85q0 177 -109 241q-59 30 -165 30q-86 0 -204 -20z" />
<glyph unicode="S" horiz-adv-x="1966" d="M81 88l129 551q412 -75 645 -75q300 0 300 126q0 8 -1 16q-22 94 -142 94q-17 0 -35 -2q-125 -10 -251 -10h-23q-204 2 -338 94q-186 127 -225 263q-47 147 -47 285q0 233 134 441q256 368 767 368q317 0 733 -142l-129 -556q-372 79 -581 79q-271 0 -271 -132 q0 -12 2 -24q22 -94 139 -94q18 0 39 2q112 11 214 11q29 0 58 -1q205 -2 339 -94q186 -128 225 -263q47 -147 47 -285q0 -233 -134 -441q-257 -367 -786 -367q-346 0 -808 156z" />
<glyph unicode="T" horiz-adv-x="2100" d="M76 2093q980 113 1891 173q5 -115 5 -237q0 -197 -13 -412q-68 -17 -601 -65q5 -415 5 -749q0 -463 -10 -771q-383 -58 -593 -58q-50 0 -90 3q-8 494 -8 1024q0 241 2 490q-265 -22 -584 -47q-16 150 -16 326q0 152 12 323z" />
<glyph unicode="U" horiz-adv-x="2116" d="M112 851q-25 238 -25 482q0 371 57 759q301 51 611 70q-3 -169 -3 -318q0 -717 72 -945q65 -188 184 -187q12 0 24 1q156 22 229 230q61 237 61 894q0 170 -4 369q306 44 582 44h46q28 -353 28 -663q0 -248 -18 -468q-59 -822 -654 -1099q-198 -82 -409 -82 q-78 0 -158 11q-490 124 -623 902z" />
<glyph unicode="V" horiz-adv-x="2238" d="M50 2045q163 91 704 159q250 -864 374 -1219q172 641 305 1271q145 9 263 9q291 0 422 -53q-436 -1636 -613 -2171q-319 -73 -587 -73q-77 0 -149 6q-371 955 -719 2071z" />
<glyph unicode="W" horiz-adv-x="3167" d="M50 1998q238 83 639 162q216 -861 323 -1215q149 636 263 1203q217 34 423 34q58 0 115 -3q211 -827 327 -1247q149 636 267 1296q430 -9 640 -45q-382 -1670 -536 -2183q-412 -63 -646 -63q-35 0 -67 1q-121 343 -230 789q-110 -475 -185 -734q-404 -64 -637 -64 q-40 0 -76 2q-319 954 -620 2067z" />
<glyph unicode="X" horiz-adv-x="2129" d="M50 223q311 465 553 826q-242 318 -553 727q134 187 550 453q49 -49 428 -547q406 599 431 625q359 -191 550 -336q-315 -477 -560 -845q245 -326 560 -747q-238 -238 -550 -434q-25 20 -431 548q-379 -566 -428 -626q-416 193 -550 356z" />
<glyph unicode="Y" horiz-adv-x="2166" d="M50 1757l523 472q222 -236 543 -525q158 334 294 566q410 -65 636 -198q-668 -1297 -1237 -2207q-589 57 -665 122q310 509 612 1060q-370 355 -706 710z" />
<glyph unicode="Z" horiz-adv-x="1983" d="M59 466q480 617 893 1063q-548 -57 -868 -69q-12 101 -12 279q0 153 9 362q1004 113 1754 153q15 -144 15 -316q0 -147 -11 -313q-338 -447 -815 -1017q603 62 764 62q17 0 29 -1q7 -126 7 -247q0 -171 -14 -333q-848 -103 -1743 -156q-11 159 -11 338q0 95 3 195z" />
<glyph unicode="[" horiz-adv-x="1257" d="M68 -586q-18 1219 5 3265q62 22 1062 100q2 -350 -2 -590l-422 -37q-10 -873 0 -2104q361 45 414 41q3 -373 1 -573q-90 -33 -1058 -102z" />
<glyph unicode="\" horiz-adv-x="1796" d="M50 2136q195 49 655 47q955 -2097 971 -2162q-616 -63 -638 -62q-939 2032 -988 2177z" />
<glyph unicode="]" horiz-adv-x="1257" d="M52 -590q-2 350 2 589l422 37q10 874 0 2104q-361 -44 -414 -40q-3 373 -1 573q90 33 1058 102q18 -1219 -5 -3265q-62 -22 -1062 -100z" />
<glyph unicode="^" horiz-adv-x="1458" d="M50 2486q332 314 653 503q315 -134 635 -373l-234 -392q-238 193 -401 269q-162 -90 -419 -328z" />
<glyph unicode="_" horiz-adv-x="1873" d="M50 -85v542q55 29 1681 167q22 -232 5 -553q-43 -18 -1686 -156z" />
<glyph unicode="`" horiz-adv-x="1157" d="M50 2538l203 392q177 -38 784 -341q-74 -198 -200 -402q-343 130 -787 351z" />
<glyph unicode="a" horiz-adv-x="2126" />
<glyph unicode="b" horiz-adv-x="1877" />
<glyph unicode="c" horiz-adv-x="1604" />
<glyph unicode="d" horiz-adv-x="1040" />
<glyph unicode="e" horiz-adv-x="1868" />
<glyph unicode="f" horiz-adv-x="2098" />
<glyph unicode="g" horiz-adv-x="899" />
<glyph unicode="h" horiz-adv-x="1891" />
<glyph unicode="i" horiz-adv-x="1073" />
<glyph unicode="j" horiz-adv-x="2105" />
<glyph unicode="k" horiz-adv-x="1026" />
<glyph unicode="l" horiz-adv-x="522" />
<glyph unicode="m" horiz-adv-x="1569" />
<glyph unicode="n" horiz-adv-x="1108" />
<glyph unicode="o" />
<glyph unicode="p" />
<glyph unicode="q" horiz-adv-x="1024" />
<glyph unicode="r" horiz-adv-x="692" />
<glyph unicode="s" horiz-adv-x="702" />
<glyph unicode="t" horiz-adv-x="674" />
<glyph unicode="u" horiz-adv-x="1059" />
<glyph unicode="v" horiz-adv-x="993" />
<glyph unicode="w" horiz-adv-x="1415" />
<glyph unicode="x" />
<glyph unicode="y" horiz-adv-x="868" />
<glyph unicode="z" horiz-adv-x="727" />
<glyph unicode="{" horiz-adv-x="1448" />
<glyph unicode="|" horiz-adv-x="836" d="M52 2211q424 85 625 71q16 -153 1 -2355q-20 -5 -616 -52q-12 67 -10 2336z" />
<glyph unicode="}" horiz-adv-x="1014" />
<glyph unicode="~" horiz-adv-x="1539" d="M170 2244q-120 229 39 491q119 177 340 206q242 22 309 -134q57 -163 147 -143q35 8 54 63q17 107 -60 236q48 70 380 43q40 -412 -163 -583q-131 -102 -320 -110q-211 -8 -306 154q-67 150 -143 71q-67 -95 65 -235q-37 -66 -342 -59z" />
<glyph unicode="&#xa1;" horiz-adv-x="903" d="M50 -88q19 1092 55 1600q52 19 52 1q270 31 545 46q32 -451 81 -1588q-329 -50 -733 -59zM58 1885q-2 214 197 280t331 8q117 -52 158 -193q37 -183 -148 -316q-148 -84 -332.5 -26.5t-205.5 247.5z" />
<glyph unicode="&#xa2;" horiz-adv-x="1980" d="M50 855q10 173 72 353q138 383 502 593q169 89 342 109q15 83 31 167q147 42 289 29q-4 -38 -34 -208q109 -23 220 -71q80 -46 113 -70q-177 -371 -327 -539q-60 33 -121 53q-53 -288 -126 -672q144 38 292 142q117 -108 308 -441q-43 -49 -139 -133q-253 -174 -547 -188 h-32q-16 -84 -32 -170q-15 -5 -279 -11q1 19 35 214q-565 137 -567 843zM660 1059q-82 -199 33 -367q19 -23 40 -41q49 264 112 609q-108 -57 -185 -201z" />
<glyph unicode="&#xa3;" horiz-adv-x="1884" d="M53 640v444q16 8 160 25q0 181 1 373v10q4 226 134 428q415 597 1500 226l-129 -556q-823 175 -851 -38l3 -380q141 12 307 26q18 -189 4 -453q-18 -8 -308 -34l1 -106q525 56 846 72q8 -327 -6 -607q-530 -78 -1489 -139q-8 329 -11 722q-78 -6 -162 -13z" />
<glyph unicode="&#xa4;" horiz-adv-x="1943" d="M62 1421l342 421q21 -4 155 -89q200 151 520 171q98 8 184 -9q56 67 116 139l451 -303q-6 -24 -149 -207q26 -79 35 -167q19 -200 -47 -415q-3 -9 -7 -19q97 -66 205 -139q-129 -193 -345 -432q-17 5 -195 122q-288 -209 -599 -137q-57 -69 -118 -144q-208 113 -464 306 q7 16 145 190q-16 36 -28 75q-37 136 -33 274q11 120 37 223q-97 67 -205 140zM709 982q82 -165 240 -146q189 33 274 228q40 103 18 190q-53 165 -232 153q-152 -5 -247 -124q-104 -151 -53 -301z" />
<glyph unicode="&#xa5;" horiz-adv-x="2166" d="M50 1757l523 472q222 -236 543 -525q158 334 294 566q410 -65 636 -198q-269 -521 -520 -980q0 -31 1 -61q70 6 145 12q17 -180 4 -430q-12 -5 -145 -18q0 -353 -11 -568q-327 -49 -736 -65q-12 285 -18 565q-78 -7 -162 -14v422q15 8 158 24v83h-9q2 3 3 5 q-370 355 -706 710z" />
<glyph unicode="&#xa6;" horiz-adv-x="694" d="M64 937q271 52 512 48q19 -787 3 -1045q-224 -37 -504 -49q-22 578 -11 1046zM64 2154q271 52 512 48q19 -787 3 -1045q-224 -37 -504 -49q-22 578 -11 1046z" />
<glyph unicode="&#xa7;" horiz-adv-x="1419" d="M121 1424q-70 288 98 513q325 404 1079 87l-119 -391q-628 181 -609 -12q13 -79 122 -74q103 3 194 -7q146 -11 236 -84q127 -99 147 -197q59 -240 -48 -436q65 -69 79 -137q71 -288 -98 -512q-324 -404 -1078 -86l119 389q627 -180 609 12q-13 80 -122 75 q-104 -3 -195 7q-145 11 -236 83q-126 101 -147 199q-58 239 48 435q-65 68 -79 136zM601 1049q10 -70 103 -74q123 11 117 87q-12 73 -110 74q-116 -13 -110 -87z" />
<glyph unicode="&#xa8;" horiz-adv-x="1488" d="M116 2429q-66 113 3.5 267t246.5 187q200 20 244.5 -136t-20.5 -268q-58 -99 -192 -144q-174 -46 -282 94zM829 2494q-66 112 3.5 266t246.5 187q200 20 244.5 -136t-20.5 -268q-58 -99 -192 -144q-174 -46 -282 95z" />
<glyph unicode="&#xa9;" horiz-adv-x="2234" d="M109 1012q100 1092 1134 1157q424 36 698 -290q129 -198 153 -441q25 -267 -64 -553q-112 -314 -300 -496q-594 -558 -1262 -192q-220 155 -315 449q-49 182 -44 366zM620 826q154 -309 450 -274q354 63 514 428q75 193 35 356q-100 311 -436 288q-286 -9 -464 -233 q-195 -284 -99 -565zM677 1043q4 80 33 164q64 178 233 275q190 101 393 12q37 -21 53 -32q-82 -172 -152 -250q-65 35 -130 36q-91 -6 -148 -110q-38 -93 16 -170q48 -60 137 -46q71 17 146 69q54 -51 143 -205q-20 -23 -65 -62q-117 -81 -253 -87q-405 0 -406 406z" />
<glyph unicode="&#xaa;" horiz-adv-x="648" />
<glyph unicode="&#xab;" horiz-adv-x="944" />
<glyph unicode="&#xac;" horiz-adv-x="1014" />
<glyph unicode="&#xad;" horiz-adv-x="1565" d="M50 707v542q55 29 1373 139q22 -231 5 -553q-43 -18 -1378 -128z" />
<glyph unicode="&#xae;" horiz-adv-x="2234" d="M109 1012q100 1092 1134 1157q424 36 698 -290q129 -198 153 -441q25 -267 -64 -553q-112 -314 -300 -496q-594 -558 -1262 -192q-220 155 -315 449q-49 182 -44 366zM620 826q154 -309 450 -274q354 63 514 428q75 193 35 356q-100 311 -436 288q-286 -9 -464 -233 q-195 -284 -99 -565zM812 1468q18 12 190 32q122 14 217 -1q193 -39 198 -260q-2 -169 -108 -259q47 -63 114 -151q-62 -60 -156 -128q-10 7 -152 196q-32 -4 -70 -5q-1 -64 -1 -135q-95 -19 -230 -22q-11 400 -2 733zM1043 1290q2 -95 3 -202q144 14 159 87q10 85 -36 111 q-36 19 -126 4z" />
<glyph unicode="&#xaf;" horiz-adv-x="670" />
<glyph unicode="&#xb0;" horiz-adv-x="1036" d="M215 2008q-165 228 28 463q60 74 170 124q100 40 194 40q90 -1 168 -41q131 -91 131 -248q10 -371 -380 -443q-67 -8 -134 4q-112 24 -177 101zM480 2248q-2 -30 35 -42q26 -10 52 14q23 22 21 57q-1 36 -31 44q-14 2 -34 -9q-40 -22 -43 -64z" />
<glyph unicode="&#xb1;" horiz-adv-x="1014" />
<glyph unicode="&#xb2;" horiz-adv-x="1014" />
<glyph unicode="&#xb3;" horiz-adv-x="1014" />
<glyph unicode="&#xb4;" horiz-adv-x="1157" d="M50 2500q606 412 784 482l203 -355q-445 -301 -788 -493q-125 181 -199 366z" />
<glyph unicode="&#xb5;" horiz-adv-x="1180" />
<glyph unicode="&#xb6;" horiz-adv-x="1024" />
<glyph unicode="&#xb7;" horiz-adv-x="895" d="M57 1185q21 193 205.5 284.5t331.5 33.5q186 -100 149 -290q-41 -148 -158 -221q-132 -82 -331 -52t-197 245z" />
<glyph unicode="&#xb8;" horiz-adv-x="1195" d="M50 -493q65 53 267 183q170 -249 314 -114q69 80 -76 123q-96 27 -256 13q-7 197 -3 430q164 22 363 37q-9 -106 -4 -201q30 -4 141 -32q243 -75 263 -255q16 -273 -308 -436q-130 -49 -275 -49q-257 14 -426 301z" />
<glyph unicode="&#xb9;" horiz-adv-x="1014" />
<glyph unicode="&#xba;" horiz-adv-x="718" />
<glyph unicode="&#xbb;" horiz-adv-x="944" />
<glyph unicode="&#xbc;" horiz-adv-x="1708" />
<glyph unicode="&#xbd;" horiz-adv-x="1964" />
<glyph unicode="&#xbe;" horiz-adv-x="1708" />
<glyph unicode="&#xbf;" horiz-adv-x="2126" d="M79 698q48 459 755 703q8 55 10 230q333 33 625 50q7 -143 4 -660q-288 -29 -471 -115q-367 -158 -190 -311q323 -220 1061 173q55 -42 133 -506q-613 -479 -1362 -309q-594 208 -565 745zM807 2008q41 148 158 221q132 82 331 52t197 -245q-21 -193 -205.5 -284 t-332.5 -34q-185 100 -148 290z" />
<glyph unicode="&#xc0;" horiz-adv-x="2238" d="M50 -44q436 1636 613 2171q411 94 736 67q371 -955 719 -2071q-163 -92 -704 -159q-36 125 -70 240q-223 -19 -556 -48q-27 -122 -53 -245q-502 -30 -685 45zM499 2566l203 391q177 -38 784 -340q-74 -199 -200 -402q-343 130 -787 351zM924 732l255 23q-83 267 -139 428 q-61 -227 -116 -451z" />
<glyph unicode="&#xc1;" horiz-adv-x="2238" d="M50 -44q436 1636 613 2171q411 94 736 67q371 -955 719 -2071q-163 -92 -704 -159q-36 125 -70 240q-223 -19 -556 -48q-27 -122 -53 -245q-502 -30 -685 45zM499 2528q607 412 784 482l203 -355q-444 -301 -787 -493q-126 181 -200 366zM924 732l255 23 q-83 267 -139 428q-61 -227 -116 -451z" />
<glyph unicode="&#xc2;" horiz-adv-x="2238" d="M50 -44q436 1636 613 2171q411 94 736 67q371 -955 719 -2071q-163 -92 -704 -159q-36 125 -70 240q-223 -19 -556 -48q-27 -122 -53 -245q-502 -30 -685 45zM396 2482q332 314 653 503q315 -134 635 -373l-234 -392q-238 193 -401 269q-162 -90 -419 -328zM924 732 l255 23q-83 267 -139 428q-61 -227 -116 -451z" />
<glyph unicode="&#xc3;" horiz-adv-x="2238" d="M50 -44q436 1636 613 2171q411 94 736 67q371 -955 719 -2071q-163 -92 -704 -159q-36 125 -70 240q-223 -19 -556 -48q-27 -122 -53 -245q-502 -30 -685 45zM446 2237q-120 230 39 491q119 178 340 207q242 21 309 -135q57 -163 147 -142q35 8 54 62q17 107 -60 236 q48 70 380 43q40 -411 -163 -582q-131 -102 -320 -110q-211 -8 -306 153q-67 150 -143 71q-67 -95 65 -235q-37 -65 -342 -59zM924 732l255 23q-83 267 -139 428q-61 -227 -116 -451z" />
<glyph unicode="&#xc4;" horiz-adv-x="2238" d="M50 -44q436 1636 613 2171q411 94 736 67q371 -955 719 -2071q-163 -92 -704 -159q-36 125 -70 240q-223 -19 -556 -48q-27 -122 -53 -245q-502 -30 -685 45zM432 2424q-66 112 3.5 266.5t246.5 187.5q200 20 244.5 -136t-20.5 -268q-58 -99 -192 -144q-174 -46 -282 94z M924 732l255 23q-83 267 -139 428q-61 -227 -116 -451zM1145 2488q-66 112 3.5 266.5t246.5 187.5q200 20 244.5 -136t-20.5 -268q-58 -99 -192 -144q-174 -46 -282 94z" />
<glyph unicode="&#xc5;" horiz-adv-x="2238" d="M50 -44q436 1636 613 2171q411 94 736 67q371 -955 719 -2071q-163 -92 -704 -159q-36 125 -70 240q-223 -19 -556 -48q-27 -122 -53 -245q-502 -30 -685 45zM700 2353q-165 228 28 464q60 73 170 123q100 40 194 41q90 -1 168 -41q131 -92 131 -249q10 -371 -380 -443 q-67 -8 -134 4q-112 24 -177 101zM924 732l255 23q-83 267 -139 428q-61 -227 -116 -451zM965 2593q-2 -29 35 -42q26 -9 52 15q23 22 21 57q-1 36 -31 43q-14 3 -34 -8q-40 -23 -43 -65z" />
<glyph unicode="&#xc6;" horiz-adv-x="3078" d="M50 -82q436 1636 613 2171q411 94 736 67q16 -40 31 -81q866 121 1513 146q25 -312 -2 -599l-883 -83l4 -209l846 73l1 -573q-51 -11 -839 -78l1 -197q822 91 875 87q25 -350 1 -582q-533 -82 -1500 -130q-16 -2 -33 -4q-36 126 -70 240q-223 -19 -556 -48 q-27 -122 -53 -244q-502 -31 -685 44zM924 695l255 23q-83 266 -139 427q-61 -226 -116 -450z" />
<glyph unicode="&#xc7;" horiz-adv-x="1980" d="M50 995q12 200 83 409q160 444 583 688q475 251 983 30q93 -54 131 -81q-205 -430 -379 -625q-162 89 -326 91q-227 -15 -368 -276q-95 -231 38 -425q122 -149 343 -115q179 42 365 172q136 -126 357 -512q-50 -57 -161 -154q-232 -159 -493 -203q0 -21 1 -41 q30 -5 141 -33q243 -75 263 -255q16 -273 -308 -436q-130 -49 -275 -49q-257 14 -426 301q65 53 267 183q170 -249 314 -114q69 81 -76 124q-96 26 -256 12q-5 143 -4 306q-794 102 -797 1003z" />
<glyph unicode="&#xc8;" horiz-adv-x="1749" d="M78 2096q872 122 1523 146q25 -311 -2 -598l-883 -83l4 -209l846 73l1 -573q-51 -11 -839 -78l1 -197q822 91 875 87q25 -350 1 -582q-539 -83 -1523 -131q-32 973 -4 2145zM307 2571l203 391q177 -38 784 -340q-74 -199 -200 -402q-343 130 -787 351z" />
<glyph unicode="&#xc9;" horiz-adv-x="1749" d="M78 2096q872 122 1523 146q25 -311 -2 -598l-883 -83l4 -209l846 73l1 -573q-51 -11 -839 -78l1 -197q822 91 875 87q25 -350 1 -582q-539 -83 -1523 -131q-32 973 -4 2145zM445 2545q607 412 784 482l203 -355q-444 -301 -787 -493q-126 181 -200 366z" />
<glyph unicode="&#xca;" horiz-adv-x="1749" d="M78 2096q872 122 1523 146q25 -311 -2 -598l-883 -83l4 -209l846 73l1 -573q-51 -11 -839 -78l1 -197q822 91 875 87q25 -350 1 -582q-539 -83 -1523 -131q-32 973 -4 2145zM214 2488q332 313 653 502q315 -133 635 -373l-234 -392q-238 194 -401 269q-162 -89 -419 -327 z" />
<glyph unicode="&#xcb;" horiz-adv-x="1749" d="M78 2096q872 122 1523 146q25 -311 -2 -598l-883 -83l4 -209l846 73l1 -573q-51 -11 -839 -78l1 -197q822 91 875 87q25 -350 1 -582q-539 -83 -1523 -131q-32 973 -4 2145zM299 2434q-66 112 3.5 266.5t246.5 187.5q200 20 244.5 -136t-20.5 -268q-58 -99 -192 -144 q-174 -46 -282 94zM1012 2498q-66 112 3.5 266.5t246.5 187.5q200 20 244.5 -136t-20.5 -268q-58 -99 -192 -144q-174 -46 -282 94z" />
<glyph unicode="&#xcc;" horiz-adv-x="969" d="M-33 2575l203 392q177 -38 784 -341q-74 -198 -200 -402q-343 130 -787 351zM103 2139q363 68 687 63q25 -1056 4 -2167q-300 -49 -676 -65q-30 776 -15 2169z" />
<glyph unicode="&#xcd;" horiz-adv-x="897" d="M-31 2537q607 411 784 481l203 -354q-444 -301 -787 -493q-126 181 -200 366zM65 2138q363 69 687 64q25 -1056 4 -2167q-300 -49 -676 -65q-30 776 -15 2168z" />
<glyph unicode="&#xce;" horiz-adv-x="1142" d="M-82 2488q332 314 653 503q315 -134 635 -373l-234 -392q-238 194 -401 269q-162 -90 -419 -328zM196 2139q363 69 687 64q25 -1057 4 -2168q-300 -49 -676 -64q-30 776 -15 2168z" />
<glyph unicode="&#xcf;" horiz-adv-x="1103" d="M53 2437q-66 112 3.5 266.5t246.5 187.5q200 20 244.5 -136t-20.5 -268q-58 -99 -192 -144q-174 -46 -282 94zM174 2139q363 69 687 64q25 -1057 4 -2168q-300 -49 -676 -65q-30 777 -15 2169zM632 2489q-66 112 3.5 266.5t246.5 187.5q200 20 244.5 -136t-20.5 -268 q-58 -99 -192 -144q-174 -46 -282 94z" />
<glyph unicode="&#xd0;" horiz-adv-x="1518" />
<glyph unicode="&#xd1;" horiz-adv-x="2152" d="M69 -67q-19 932 1 2117l612 150q284 -373 638 -925q-20 352 -9 878q466 41 689 -4q32 -1189 0 -2098q-321 -128 -516 -127q-286 432 -744 1025l1 -1024q-542 -25 -672 8zM392 2236q-120 230 39 491q119 178 340 207q242 21 309 -135q57 -163 147 -142q35 8 54 62 q17 107 -60 236q48 70 380 43q40 -411 -163 -582q-131 -102 -320 -110q-211 -8 -306 153q-67 150 -143 71q-67 -95 65 -235q-37 -65 -342 -59z" />
<glyph unicode="&#xd2;" horiz-adv-x="2355" d="M55 986q109 1184 1230 1255q460 39 757 -315q140 -214 166 -478q27 -289 -69 -600q-122 -340 -326 -538q-644 -605 -1368 -208q-239 168 -342 487q-53 198 -48 397zM749 876q119 -238 348 -211q273 48 396 330q58 149 27 275q-77 240 -336 222q-221 -7 -358 -180 q-151 -219 -77 -436zM860 2593l203 392q177 -38 784 -341q-74 -198 -200 -402q-343 130 -787 351z" />
<glyph unicode="&#xd3;" horiz-adv-x="2355" d="M55 986q109 1184 1230 1255q460 39 757 -315q140 -214 166 -478q27 -289 -69 -600q-122 -340 -326 -538q-644 -605 -1368 -208q-239 168 -342 487q-53 198 -48 397zM582 2530q607 412 784 482l203 -355q-444 -301 -787 -493q-126 181 -200 366zM749 876 q119 -238 348 -211q273 48 396 330q58 149 27 275q-77 240 -336 222q-221 -7 -358 -180q-151 -219 -77 -436z" />
<glyph unicode="&#xd4;" horiz-adv-x="2355" d="M55 986q109 1184 1230 1255q460 39 757 -315q140 -214 166 -478q27 -289 -69 -600q-122 -340 -326 -538q-644 -605 -1368 -208q-239 168 -342 487q-53 198 -48 397zM561 2492q332 313 653 502q315 -133 635 -373l-234 -392q-238 194 -401 269q-162 -89 -419 -327z M749 876q119 -238 348 -211q273 48 396 330q58 149 27 275q-77 240 -336 222q-221 -7 -358 -180q-151 -219 -77 -436z" />
<glyph unicode="&#xd5;" horiz-adv-x="2355" d="M55 986q109 1184 1230 1255q460 39 757 -315q140 -214 166 -478q27 -289 -69 -600q-122 -340 -326 -538q-644 -605 -1368 -208q-239 168 -342 487q-53 198 -48 397zM561 2247q-120 229 39 490q119 178 340 207q242 21 309 -135q57 -162 147 -142q35 8 54 63 q17 106 -60 235q48 70 380 43q40 -411 -163 -582q-131 -102 -320 -110q-211 -8 -306 153q-67 150 -143 71q-67 -95 65 -235q-37 -65 -342 -58zM749 876q119 -238 348 -211q273 48 396 330q58 149 27 275q-77 240 -336 222q-221 -7 -358 -180q-151 -219 -77 -436z" />
<glyph unicode="&#xd6;" horiz-adv-x="2355" d="M55 986q109 1184 1230 1255q460 39 757 -315q140 -214 166 -478q27 -289 -69 -600q-122 -340 -326 -538q-644 -605 -1368 -208q-239 168 -342 487q-53 198 -48 397zM543 2434q-66 112 3.5 266t246.5 187q200 20 244.5 -136t-20.5 -267q-58 -100 -192 -145 q-174 -45 -282 95zM749 876q119 -238 348 -211q273 48 396 330q58 149 27 275q-77 240 -336 222q-221 -7 -358 -180q-151 -219 -77 -436zM1256 2498q-66 112 3.5 266.5t246.5 187.5q200 20 244.5 -136t-20.5 -268q-58 -99 -192 -145q-174 -45 -282 95z" />
<glyph unicode="&#xd7;" horiz-adv-x="1565" d="M29 1237l380 413q32 -7 333 -226q132 142 291 312l422 -313q-10 -30 -275 -323q141 -107 310 -232q-146 -191 -385 -425q-22 8 -320 228q-129 -139 -281 -303q-197 118 -435 315q11 22 277 314q-145 109 -317 240z" />
<glyph unicode="&#xd8;" horiz-adv-x="2355" d="M55 986q105 1142 1151 1249q32 118 65 245q343 101 489 85q-12 -59 -92 -369q211 -76 374 -270q140 -214 166 -478q27 -289 -69 -600q-122 -340 -326 -538q-358 -337 -742 -363q-24 -92 -49 -185q-16 -6 -476 -62q4 26 79 318q-89 34 -180 84q-239 168 -342 487 q-53 198 -48 397zM749 876q32 -63 71 -108q79 300 180 683q-100 -45 -174 -139q-151 -219 -77 -436zM1282 735q134 84 211 260q58 149 27 275q-23 73 -64 122q-77 -292 -174 -657z" />
<glyph unicode="&#xd9;" horiz-adv-x="2116" d="M112 851q-62 598 32 1241q301 51 611 70q-18 -988 69 -1263q71 -206 208 -186q156 22 229 230q77 299 57 1263q332 48 628 44q50 -636 10 -1131q-59 -822 -654 -1099q-272 -113 -567 -71q-490 124 -623 902zM499 2572l203 391q177 -38 784 -340q-74 -199 -200 -402 q-343 130 -787 351z" />
<glyph unicode="&#xda;" horiz-adv-x="2116" d="M112 851q-62 598 32 1241q301 51 611 70q-18 -988 69 -1263q71 -206 208 -186q156 22 229 230q77 299 57 1263q332 48 628 44q50 -636 10 -1131q-59 -822 -654 -1099q-272 -113 -567 -71q-490 124 -623 902zM507 2534q607 412 784 482l203 -355q-444 -301 -787 -493 q-126 181 -200 366z" />
<glyph unicode="&#xdb;" horiz-adv-x="2116" d="M112 851q-62 598 32 1241q301 51 611 70q-18 -988 69 -1263q71 -206 208 -186q156 22 229 230q77 299 57 1263q332 48 628 44q50 -636 10 -1131q-59 -822 -654 -1099q-272 -113 -567 -71q-490 124 -623 902zM396 2487q332 314 653 503q315 -133 635 -373l-234 -392 q-238 194 -401 269q-162 -89 -419 -328z" />
<glyph unicode="&#xdc;" horiz-adv-x="2116" d="M112 851q-62 598 32 1241q301 51 611 70q-18 -988 69 -1263q71 -206 208 -186q156 22 229 230q77 299 57 1263q332 48 628 44q50 -636 10 -1131q-59 -822 -654 -1099q-272 -113 -567 -71q-490 124 -623 902zM432 2430q-66 112 3.5 266t246.5 187q200 20 244.5 -136 t-20.5 -268q-58 -99 -192 -144q-174 -46 -282 95zM1145 2494q-66 112 3.5 266t246.5 187q200 20 244.5 -136t-20.5 -268q-58 -99 -192 -144q-174 -45 -282 95z" />
<glyph unicode="&#xdd;" horiz-adv-x="1233" />
<glyph unicode="&#xde;" horiz-adv-x="1120" />
<glyph unicode="&#xdf;" horiz-adv-x="1251" />
<glyph unicode="&#xe0;" horiz-adv-x="922" />
<glyph unicode="&#xe1;" horiz-adv-x="922" />
<glyph unicode="&#xe2;" horiz-adv-x="922" />
<glyph unicode="&#xe3;" horiz-adv-x="922" />
<glyph unicode="&#xe4;" horiz-adv-x="922" />
<glyph unicode="&#xe5;" horiz-adv-x="922" />
<glyph unicode="&#xe6;" horiz-adv-x="1454" />
<glyph unicode="&#xe7;" horiz-adv-x="905" />
<glyph unicode="&#xe8;" horiz-adv-x="909" />
<glyph unicode="&#xe9;" horiz-adv-x="909" />
<glyph unicode="&#xea;" horiz-adv-x="909" />
<glyph unicode="&#xeb;" horiz-adv-x="909" />
<glyph unicode="&#xec;" horiz-adv-x="514" />
<glyph unicode="&#xed;" horiz-adv-x="514" />
<glyph unicode="&#xee;" horiz-adv-x="514" />
<glyph unicode="&#xef;" horiz-adv-x="514" />
<glyph unicode="&#xf0;" horiz-adv-x="1139" />
<glyph unicode="&#xf1;" horiz-adv-x="1108" />
<glyph unicode="&#xf2;" />
<glyph unicode="&#xf3;" />
<glyph unicode="&#xf4;" />
<glyph unicode="&#xf5;" />
<glyph unicode="&#xf6;" />
<glyph unicode="&#xf7;" horiz-adv-x="895" d="M52 160q21 193 205.5 284.5t331.5 33.5q186 -100 149 -290q-41 -148 -158 -221q-132 -82 -331 -52t-197 245zM52 997q21 193 205.5 284.5t331.5 33.5q186 -100 149 -290q-41 -148 -158 -221q-132 -82 -331 -52t-197 245z" />
<glyph unicode="&#xf8;" />
<glyph unicode="&#xf9;" horiz-adv-x="1059" />
<glyph unicode="&#xfa;" horiz-adv-x="1059" />
<glyph unicode="&#xfb;" horiz-adv-x="1059" />
<glyph unicode="&#xfc;" horiz-adv-x="1059" />
<glyph unicode="&#xfd;" horiz-adv-x="868" />
<glyph unicode="&#xfe;" />
<glyph unicode="&#xff;" horiz-adv-x="868" />
<glyph unicode="&#x152;" horiz-adv-x="3196" d="M55 948q109 1184 1230 1255q295 25 522 -111q719 96 1282 117q25 -311 -2 -598l-883 -83l2 -98l2 -20q4 -45 5 -91l841 73l1 -573q-51 -11 -839 -78l1 -197q822 91 875 87q25 -350 1 -582q-539 -83 -1519 -142q-3 86 -6 173q-535 -338 -1123 -16q-239 168 -342 487 q-53 198 -48 397zM749 839q119 -239 348 -212q273 48 396 331q58 148 27 274q-77 240 -336 222q-221 -7 -358 -179q-151 -220 -77 -436z" />
<glyph unicode="&#x2c6;" horiz-adv-x="1458" d="M50 2486q332 314 653 503q315 -134 635 -373l-234 -392q-238 193 -401 269q-162 -90 -419 -328z" />
<glyph unicode="&#x2dc;" horiz-adv-x="1539" d="M170 2244q-120 229 39 491q119 177 340 206q242 22 309 -134q57 -163 147 -143q35 8 54 63q17 107 -60 236q48 70 380 43q40 -412 -163 -583q-131 -102 -320 -110q-211 -8 -306 154q-67 150 -143 71q-67 -95 65 -235q-37 -66 -342 -59z" />
<glyph unicode="&#x2000;" horiz-adv-x="1513" />
<glyph unicode="&#x2001;" horiz-adv-x="3027" />
<glyph unicode="&#x2002;" horiz-adv-x="1513" />
<glyph unicode="&#x2003;" horiz-adv-x="3027" />
<glyph unicode="&#x2004;" horiz-adv-x="1009" />
<glyph unicode="&#x2005;" horiz-adv-x="756" />
<glyph unicode="&#x2006;" horiz-adv-x="504" />
<glyph unicode="&#x2007;" horiz-adv-x="504" />
<glyph unicode="&#x2008;" horiz-adv-x="378" />
<glyph unicode="&#x2009;" horiz-adv-x="605" />
<glyph unicode="&#x200a;" horiz-adv-x="168" />
<glyph unicode="&#x2010;" horiz-adv-x="1565" d="M50 707v542q55 29 1373 139q22 -231 5 -553q-43 -18 -1378 -128z" />
<glyph unicode="&#x2011;" horiz-adv-x="1565" d="M50 707v542q55 29 1373 139q22 -231 5 -553q-43 -18 -1378 -128z" />
<glyph unicode="&#x2012;" horiz-adv-x="1565" d="M50 707v542q55 29 1373 139q22 -231 5 -553q-43 -18 -1378 -128z" />
<glyph unicode="&#x2013;" horiz-adv-x="1108" />
<glyph unicode="&#x2014;" horiz-adv-x="2048" />
<glyph unicode="&#x2018;" horiz-adv-x="557" />
<glyph unicode="&#x2019;" horiz-adv-x="557" />
<glyph unicode="&#x201a;" horiz-adv-x="557" />
<glyph unicode="&#x201c;" horiz-adv-x="910" />
<glyph unicode="&#x201d;" horiz-adv-x="910" />
<glyph unicode="&#x201e;" horiz-adv-x="910" />
<glyph unicode="&#x2022;" horiz-adv-x="1024" />
<glyph unicode="&#x2026;" horiz-adv-x="2048" />
<glyph unicode="&#x202f;" horiz-adv-x="605" />
<glyph unicode="&#x2039;" horiz-adv-x="631" />
<glyph unicode="&#x203a;" horiz-adv-x="631" />
<glyph unicode="&#x205f;" horiz-adv-x="756" />
<glyph unicode="&#x20ac;" horiz-adv-x="1932" d="M50 727v263q15 4 119 15q-2 30 -3 62l-116 -10v263q16 4 133 17q41 269 162 422q304 416 914 486q425 32 542 -18q-93 -371 -247 -644q-543 -20 -673 -181q237 22 542 48q22 -111 5 -267q-29 -8 -634 -61q-1 -29 0 -57q266 23 629 55q22 -111 5 -267q-27 -7 -543 -53 q173 -149 677 -50q159 -267 250 -614q-203 -127 -543 -138q-528 -13 -813 255q-182 171 -251 487q-75 -6 -155 -13z" />
<glyph unicode="&#x2122;" horiz-adv-x="2100" d="M69 2192q422 48 814 74q6 -129 -3 -279q-29 -8 -259 -28q6 -426 -2 -655q-204 -31 -294 -23q-5 309 -3 651q-114 -9 -251 -20q-13 121 -2 280zM933 2156q184 61 326 79q31 -63 92.5 -220t88.5 -202q50 73 173 394q141 11 318 -13q13 -386 2 -917q-131 -21 -286 -27 q-3 15 -5 328q-193 -371 -207 -373l-207 403q-1 -148 -3 -335q-139 -21 -285 -27q-17 509 -7 910z" />
<glyph unicode="&#x25fc;" horiz-adv-x="500" d="M0 0z" />
</font>
</defs>
</svg>
